<svg width="450" height="450" viewBox="0 0 450 450" fill="none" xmlns="http://www.w3.org/2000/svg">
<path d="M316.57 308.461C309.558 302.218 308.934 291.472 315.177 284.46L338.37 258.408L381.986 297.237L358.793 323.289C352.55 330.301 341.804 330.925 334.791 324.682L316.57 308.461Z" fill="#FD5A1E"/>
<path d="M389.363 281.245C423.119 242.548 436.651 187.784 419.298 135.522C393.192 56.9002 307.362 16.846 228.74 42.952C221.812 45.2524 213.088 49.4706 206.742 52.6396C206.742 52.6396 228.014 57.3273 244.944 67.4857C261.875 77.6442 266.564 82.6711 266.564 82.6711C318.812 77.2661 357.062 114.827 369.947 153.634C380.706 186.035 370.647 224.737 349.846 248.828" stroke="#101010" stroke-width="4"/>
<path d="M79.7386 217.93C73.2489 186.771 82.8549 153.081 107.991 129.977C145.992 95.0479 205.113 97.5383 240.042 135.539C250.603 147.029 257.743 160.449 261.515 174.548L261.464 174.557C265.278 190.803 260.873 228.43 225.745 231.689C180.396 235.897 166.552 163.859 215.986 117.112C210.89 113.343 187.58 102.228 157.55 106.463C144.224 122.902 126.82 154.716 129.815 196.145C133.558 247.931 171.67 294.193 232.182 289.818C283.898 286.08 332.141 231.765 317.37 164.866L317.377 164.865C311.727 140.422 299.86 117.065 281.671 97.2754C225.61 36.2833 130.719 32.2862 69.7269 88.3476C29.3947 125.419 18.7953 178.613 24.384 229.47C28.3849 265.88 52.6363 326.935 98.8878 365.04C99.5297 365.569 100.298 365.924 101.116 366.077L163.934 377.842C165.618 378.097 166.83 376.264 165.935 374.814L139.202 323.551C127.566 307.501 99.9136 285.55 85.1123 238.56" stroke="#101010" stroke-width="4" stroke-linecap="round"/>
<path d="M370.482 265.623L387.042 280.366C390.756 283.672 391.086 289.362 387.78 293.075V293.075C384.474 296.788 378.784 297.119 375.071 293.813L341.95 264.327C338.237 261.021 337.907 255.331 341.212 251.617V251.617C344.518 247.904 350.208 247.574 353.922 250.879L358.84 255.258" stroke="#101010" stroke-width="4" stroke-linecap="round"/>
<path d="M133.115 371.841C136.47 368.753 143.553 360.924 155.962 356.557" stroke="#101010" stroke-width="4" stroke-linecap="round" stroke-linejoin="round"/>
<path d="M99.7387 365.798C93.0291 359.174 95.705 352.703 100.392 349.229C106.422 344.761 116.921 345.247 123.44 346.683C121.23 343.7 117.473 336.838 120.125 333.258C122.777 329.678 129.628 331.766 132.722 333.258C132.114 329.667 132.589 322.982 139.352 324.971" stroke="#101010" stroke-width="4" stroke-linejoin="round"/>
<path d="M159.451 358.061C150.567 358.484 138.548 368.22 133.648 374.238L161.6 379.698C164.842 380.135 166.762 379.968 168.011 377.767C169.395 375.326 166.554 371.539 165.461 369.498L159.451 358.061Z" fill="#FD5A1E"/>
<path d="M173.612 113.594C168.516 118.002 151.255 146.708 148.869 179.193C145.463 225.553 177.956 268.7 222.703 270.9C267.45 273.099 307.401 228.919 300.527 177.48C295.805 142.147 273.522 108.331 239.437 87.5461M239.437 56.4412C267.493 43.5685 338.066 47.4566 378.397 94.7296C428.81 153.821 411.074 228.738 382.028 263.066M101.692 340.181C82.0143 319.328 63.2474 292.417 54.2463 265.098C36.8382 212.263 42.2601 183.764 49.1178 158.905C60.0762 119.18 109.159 61.0977 177.342 67.296C193.155 68.7337 207.874 72.5404 221.244 78.2104" stroke="#FF9393" stroke-width="4" stroke-linecap="round" stroke-linejoin="round"/>
<path d="M259.902 68.3239C272.698 66.1179 290.689 66.4412 309.588 71.8404M367.175 252.504C386.319 230.059 408.669 169.788 376.087 120.475C365.399 104.298 352.309 92.5889 338.531 84.3329" stroke="#FD5A1E" stroke-width="4" stroke-linecap="round" stroke-linejoin="round"/>
<path d="M194.238 116.914C142.066 177.577 178.529 245.195 220.696 251.569C259.146 257.381 282.362 223.248 282.362 191.012C282.362 158.775 257.979 107.108 203.554 90.9278C141.973 72.6203 100.09 112.239 87.3024 128.71C77.0966 141.855 52.0465 180.655 67.7365 242.925C71.2089 256.706 77.2629 270.255 84.6611 283.008M90.0578 293.611C100.505 309.604 115.306 326.638 116.177 327.606" stroke="#FD5A1E" stroke-width="4" stroke-linecap="round" stroke-linejoin="round"/>
<path d="M178.868 386.214C178.517 394.334 178.408 403.296 178.417 409.172C193.64 407.813 202.078 397.853 202.575 390.17C202.972 384.024 186.936 384.972 178.868 386.214ZM178.868 386.214C179.241 377.603 179.887 369.938 180.956 367.902C183.552 362.956 198.354 363.329 199.763 369.03C201.172 374.732 197.632 385.127 178.868 386.214Z" stroke="#101010" stroke-width="5" stroke-linejoin="round"/>
<path d="M216.183 410.966C215.583 405.906 214.911 398.5 214.622 391.165M214.622 391.165C214.215 380.836 214.568 370.647 216.958 367.342C222.773 365.782 234.487 364.642 234.824 372.562C235.161 380.483 221.496 388.265 214.622 391.165ZM214.622 391.165C219.786 391.861 236.289 399.539 243.693 410.106" stroke="#101010" stroke-width="5" stroke-linecap="round" stroke-linejoin="round"/>
<path d="M255.477 409.734C255.164 403.531 254.846 395.355 254.699 387.493M277.736 398.934C275.532 394.833 271.627 386.575 268.333 380.578M254.699 387.493C254.417 372.401 254.768 358.467 257.017 361.868C259.063 364.961 263.433 371.661 268.333 380.578M254.699 387.493L268.333 380.578" stroke="#101010" stroke-width="5" stroke-linecap="round" stroke-linejoin="round"/>
<path d="M293.548 399.479C292.602 397.516 290.372 392.174 289.027 386.51C287.682 380.845 282.135 367.327 279.531 361.276C284.846 364.854 296.602 372.708 301.107 375.5C306.739 378.99 314.157 385.643 315.593 385.593C317.029 385.544 309.557 370.373 307.946 365.362C306.658 361.354 303.466 351.239 302.03 346.683" stroke="#101010" stroke-width="5" stroke-linecap="round" stroke-linejoin="round"/>
<path d="M319.562 353.147C316.481 349.065 312.472 339.833 310.853 335.728C328.205 325.007 344.207 341.123 345.238 355.621C346.063 367.218 335.802 373.325 331.384 376.791C328.727 370.611 322.643 357.229 319.562 353.147Z" stroke="#101010" stroke-width="5" stroke-linecap="round" stroke-linejoin="round"/>
</svg>
